# xmcd
#
# Track frame offsets:
#	150
#	21945
#	39547
#	56917
#	74732
#	88702
#	106405
#	132707
#	153100
#	171922
#	190225
#	213690
#	238650
#	264280
#	279697
#	295715
#
# Disc length: 4165 seconds
#
# Revision: 1
# Processed by: cddbd v1.5.1PL0 Copyright (c) Steve Scherf et al.
# Submitted via: CDex 1.50Beta5
#
DISCID=f9104310
DTITLE=大貫妙子 - 大貫妙子 セレクション
DYEAR=2003
DGENRE=
TTITLE0=愛は幻
TTITLE1=時の始まり
TTITLE2=約束
TTITLE3=One’s Love
TTITLE4=Wander Lust(ALBUM ver.)
TTITLE5=街
TTITLE6=WHEN I MET THE GREY SKY
TTITLE7=Summer Connection(SINGLE ver.)
TTITLE8=くすりをたくさん
TTITLE9=何もいらない
TTITLE10=都会
TTITLE11=誰のために
TTITLE12=振子の山羊
TTITLE13=部屋
TTITLE14=明日からドラマ
TTITLE15=荒涼
EXTD=
EXTT0=
EXTT1=
EXTT2=
EXTT3=
EXTT4=
EXTT5=
EXTT6=
EXTT7=
EXTT8=
EXTT9=
EXTT10=
EXTT11=
EXTT12=
EXTT13=
EXTT14=
EXTT15=
PLAYORDER=
